<svg id="Layer_1" enable-background="new 0 0 512 512" height="512" viewBox="0 0 512 512" width="512" xmlns="http://www.w3.org/2000/svg"><g><g><path clip-rule="evenodd" d="m418.31 403.499 43.036 22.784 43.036-22.784v-100.889-100.86-100.89l-88.574-12.485-95.334 12.485v47.927c120.62 113.692 49.565 159.059 97.836 254.712z" fill="#f9f6f6" fill-rule="evenodd"/></g><g><path clip-rule="evenodd" d="m320.473 100.86h183.909v-8.918c0-50.574-41.367-91.942-91.94-91.942s-91.969 41.368-91.969 91.942z" fill="#ff8086" fill-rule="evenodd"/></g><g><path clip-rule="evenodd" d="m395.44 1.582c42.518 8.026 74.939 45.597 74.939 90.36v8.918h34.003v-8.918c0-50.574-41.367-91.942-91.94-91.942-5.811 0-11.507.547-17.002 1.582z" fill="#e5646e" fill-rule="evenodd"/></g><g><path clip-rule="evenodd" d="m470.379 100.86v100.89 100.86 100.889h34.003v-100.889-100.86-100.89z" fill="#dddaec" fill-rule="evenodd"/></g><g><path clip-rule="evenodd" d="m413.161 504.388h85.64c3.078 0 5.581-2.503 5.581-5.581v-95.308h-44.273-41.799v64.814 30.926c0 2.819-2.301 5.149-5.149 5.149z" fill="#ff8086" fill-rule="evenodd"/></g><g><path clip-rule="evenodd" d="m470.379 403.499v95.308c0 3.078-2.503 5.581-5.581 5.581h34.003c3.078 0 5.581-2.503 5.581-5.581v-95.308z" fill="#e5646e" fill-rule="evenodd"/></g><g><path d="m504.382 108.472h-183.909c-4.204 0-7.612-3.408-7.612-7.611s3.408-7.611 7.612-7.611h183.908c4.204 0 7.612 3.408 7.612 7.611s-3.408 7.611-7.611 7.611z" fill="#365e7d"/></g><g><path d="m504.382 209.361h-107.158c-4.204 0-7.611-3.408-7.611-7.611 0-4.204 3.408-7.611 7.611-7.611h107.158c4.204 0 7.612 3.408 7.612 7.611-.001 4.203-3.409 7.611-7.612 7.611z" fill="#365e7d"/></g><g><path d="m504.382 310.221h-45.049c-4.204 0-7.611-3.408-7.611-7.611s3.408-7.612 7.611-7.612h45.049c4.204 0 7.612 3.408 7.612 7.612s-3.409 7.611-7.612 7.611z" fill="#365e7d"/></g><g><path d="m504.382 411.111h-86.072c-4.204 0-7.612-3.408-7.612-7.611s3.408-7.612 7.612-7.612h86.071c4.204 0 7.612 3.408 7.612 7.612s-3.408 7.611-7.611 7.611z" fill="#365e7d"/></g><g><path clip-rule="evenodd" d="m418.31 468.313v-64.814-118.236l-49.825-78.968c-6.962-10.989-5.955-10.673-17.979-17.031l-30.033-15.851-84.633-44.677c-6.99-3.682-5.264-3.682-12.255 0l-114.666 60.528c-12.025 6.358-11.018 6.041-17.979 17.031l-49.825 78.968v183.05l188.598 36.075z" fill="#ff8086" fill-rule="evenodd"/></g><g><path clip-rule="evenodd" d="m229.713 278.359c24.625 0 44.56-19.965 44.56-44.562s-19.936-44.562-44.56-44.562c-24.596 0-44.532 19.965-44.532 44.562s19.936 44.562 44.532 44.562z" fill="#365e7d" fill-rule="evenodd"/></g><g><path clip-rule="evenodd" d="m46.264 504.388h147.029v-36.075h-152.178v30.926c0 2.819 2.302 5.149 5.149 5.149z" fill="#f9f6f6" fill-rule="evenodd"/></g><g><path clip-rule="evenodd" d="m249.447 504.388h163.714c2.848 0 5.149-2.33 5.149-5.149v-30.926h-172.43v36.075z" fill="#f9f6f6" fill-rule="evenodd"/></g><g><path clip-rule="evenodd" d="m229.713 278.359c24.625 0 44.56-19.965 44.56-44.562s-19.936-44.562-44.56-44.562c-6.501 0-12.686 1.41-18.267 3.912 15.506 6.962 26.293 22.554 26.293 40.649s-10.788 33.687-26.293 40.649c5.58 2.504 11.765 3.914 18.267 3.914z" fill="#2b4d66" fill-rule="evenodd"/></g><g><path clip-rule="evenodd" d="m128.625 221.139 94.96-52.818c6.99-3.682 5.264-3.682 12.255 0l101.059 50.258c12.025 6.358 11.852 9.551 18.929 20.483l32.536 50.027c6.904 11.68 5.034 24.079 5.034 37.686v37.255 104.284h24.912v-64.814-63.807-44.303l-49.825-78.939c-6.962-10.989-5.955-10.673-17.979-17.031l-30.033-15.851-84.633-44.677c-6.99-3.711-5.264-3.711-12.255 0l-114.666 60.528c-12.025 6.358-11.018 6.041-17.979 17.031l-49.825 78.939v43.41l66.567-96.66c7.394-10.731 8.918-14.672 20.943-21.001z" fill="#e5646e" fill-rule="evenodd"/></g><g><path clip-rule="evenodd" d="m229.713 425.794 87.193-78.594h-174.358z" fill="#d09080" fill-rule="evenodd"/></g><g><path clip-rule="evenodd" d="m182.563 468.313 47.15-42.519-87.165-78.594v121.113 36.075z" fill="#d09080" fill-rule="evenodd"/></g><g><path clip-rule="evenodd" d="m142.548 504.388h174.358l-40.015-36.075-47.178-42.519-47.15 42.519z" fill="#d09080" fill-rule="evenodd"/></g><g><path clip-rule="evenodd" d="m276.891 468.313 40.015 36.075v-36.075-121.113l-87.193 78.594z" fill="#d09080" fill-rule="evenodd"/></g><g><path clip-rule="evenodd" d="m142.548 385.318h42.259l-42.259-38.118z" fill="#ce775f" fill-rule="evenodd"/></g><g><path clip-rule="evenodd" d="m184.807 385.318h89.84l42.259-38.118h-174.358z" fill="#ce775f" fill-rule="evenodd"/></g><g><path clip-rule="evenodd" d="m274.647 385.318h42.259v-38.118z" fill="#ce775f" fill-rule="evenodd"/></g><g><path clip-rule="evenodd" d="m108.919 199.419 114.666-60.528c6.99-3.711 5.264-3.711 12.255 0l84.633 44.677 30.033 15.851c12.025 6.358 11.018 6.041 17.979 17.031l49.825 78.939 10.471 16.599c4.545 7.163 14.384 9.752 22.237 5.61 5.869-3.107 9.004-9.119 8.314-14.988-.23-1.956-.892-3.884-2.014-5.696l-63.776-101.004c-7.336-11.622-5.495-11.45-18.181-18.124l-54.888-28.998-78.793-41.598c-14.01-7.393-9.925-7.393-23.934 0l-133.681 70.596c-12.686 6.674-10.845 6.502-18.181 18.124l-63.748 101.004c-1.381 2.186-2.071 4.574-2.129 6.962v.69c.115 5.178 3.193 10.27 8.429 13.032 7.825 4.143 17.692 1.553 22.208-5.61l10.471-16.599 49.825-78.939c6.962-10.989 5.955-10.673 17.979-17.031z" fill="#ffe07d" fill-rule="evenodd"/></g><g><path d="m316.906 512h-174.358c-4.204 0-7.611-3.408-7.611-7.612v-170.381c0-4.204 3.408-7.611 7.611-7.611h174.358c4.204 0 7.611 3.408 7.611 7.611v170.382c0 4.203-3.407 7.611-7.611 7.611zm-166.746-15.223h159.135v-155.159h-159.135z" fill="#ffd064"/></g><g><path d="m316.903 512c-1.816 0-3.639-.646-5.094-1.958l-174.358-157.189c-3.122-2.815-3.372-7.627-.556-10.75 2.814-3.122 7.627-3.372 10.75-.556l174.358 157.188c3.122 2.815 3.372 7.627.556 10.75-1.502 1.667-3.575 2.515-5.656 2.515z" fill="#ffd064"/></g><g><path d="m142.551 512c-2.081 0-4.153-.848-5.656-2.515-2.815-3.122-2.566-7.935.556-10.75l174.358-157.188c3.123-2.816 7.935-2.566 10.75.556s2.566 7.935-.556 10.75l-174.358 157.189c-1.456 1.312-3.278 1.958-5.094 1.958z" fill="#ffd064"/></g><g><path d="m229.713 285.97c-28.752 0-52.143-23.405-52.143-52.173 0-28.769 23.391-52.173 52.143-52.173 28.768 0 52.172 23.405 52.172 52.173s-23.405 52.173-52.172 52.173zm0-89.123c-20.358 0-36.92 16.576-36.92 36.95s16.562 36.95 36.92 36.95c20.374 0 36.949-16.576 36.949-36.95s-16.576-36.95-36.949-36.95z" fill="#f9f6f6"/></g><g><path clip-rule="evenodd" d="m388.249 504.388h24.912c2.848 0 5.149-2.33 5.149-5.149v-30.926h-24.912v30.926c0 2.819-2.301 5.149-5.149 5.149z" fill="#dddaec" fill-rule="evenodd"/></g><g><path clip-rule="evenodd" d="m142.548 347.2h174.358 3.567 16.858c3.538 0 6.473-2.906 6.473-6.473v-21.749c0-3.567-2.934-6.473-6.473-6.473h-16.858-198.35c-3.567 0-6.473 2.906-6.473 6.473v21.749c0 3.567 2.905 6.473 6.473 6.473z" fill="#f9f6f6" fill-rule="evenodd"/></g><g><path clip-rule="evenodd" d="m308.851 347.2h8.055 3.567 16.858c3.538 0 6.473-2.906 6.473-6.473v-21.749c0-3.567-2.934-6.473-6.473-6.473h-16.858-11.622c3.567 0 6.473 2.906 6.473 6.473v21.749c0 3.568-2.906 6.473-6.473 6.473z" fill="#dddaec" fill-rule="evenodd"/></g></g></svg>